<svg width="920" height="980" viewBox="0 0 920 980" fill="none" xmlns="http://www.w3.org/2000/svg">
  <rect width="920" height="980" rx="36" fill="#F3F0EA"/>
  <rect x="0" y="0" width="920" height="88" rx="36" fill="url(#topBand)"/>
  <text x="28" y="52" fill="#24314A" font-family="Arial, sans-serif" font-size="22" font-weight="700">Venue</text>
  <text x="460" y="138" text-anchor="middle" fill="#283246" font-family="Arial, sans-serif" font-size="26" font-weight="700">M. Chinnaswamy Stadium, Bengaluru</text>

  <g transform="translate(460 514)">
    <circle r="330" fill="none" stroke="#E7E4DF" stroke-width="118"/>

    <g transform="rotate(-88)">
      <circle r="330" fill="none" stroke="#9DB3E5" stroke-width="102" stroke-linecap="round" stroke-dasharray="210 1860"/>
      <circle r="330" fill="none" stroke="#63CFD1" stroke-width="102" stroke-linecap="round" stroke-dasharray="165 1860" stroke-dashoffset="-242"/>
      <circle r="330" fill="none" stroke="#E2569D" stroke-width="102" stroke-linecap="round" stroke-dasharray="96 1860" stroke-dashoffset="-433"/>
      <circle r="330" fill="none" stroke="#F1E64E" stroke-width="102" stroke-linecap="round" stroke-dasharray="155 1860" stroke-dashoffset="-556"/>
      <circle r="330" fill="none" stroke="#5FD0D2" stroke-width="102" stroke-linecap="round" stroke-dasharray="134 1860" stroke-dashoffset="-735"/>
      <circle r="330" fill="none" stroke="#E6A95B" stroke-width="102" stroke-linecap="round" stroke-dasharray="88 1860" stroke-dashoffset="-894"/>
      <circle r="330" fill="none" stroke="#E65C97" stroke-width="102" stroke-linecap="round" stroke-dasharray="68 1860" stroke-dashoffset="-1011"/>
      <circle r="330" fill="none" stroke="#67DB71" stroke-width="102" stroke-linecap="round" stroke-dasharray="88 1860" stroke-dashoffset="-1102"/>
      <circle r="330" fill="none" stroke="#D1B457" stroke-width="102" stroke-linecap="round" stroke-dasharray="118 1860" stroke-dashoffset="-1224"/>
      <circle r="330" fill="none" stroke="#67C7D8" stroke-width="102" stroke-linecap="round" stroke-dasharray="121 1860" stroke-dashoffset="-1369"/>
    </g>

    <circle r="214" fill="none" stroke="#E7E4DF" stroke-width="88"/>
    <g transform="rotate(-64)">
      <circle r="214" fill="none" stroke="#66D7D8" stroke-width="78" stroke-linecap="round" stroke-dasharray="122 1345"/>
      <circle r="214" fill="none" stroke="#67D0D4" stroke-width="78" stroke-linecap="round" stroke-dasharray="88 1345" stroke-dashoffset="-151"/>
      <circle r="214" fill="none" stroke="#FFFFFF" stroke-width="78" stroke-linecap="round" stroke-dasharray="68 1345" stroke-dashoffset="-265"/>
      <circle r="214" fill="none" stroke="#FFFFFF" stroke-width="78" stroke-linecap="round" stroke-dasharray="64 1345" stroke-dashoffset="-357"/>
      <circle r="214" fill="none" stroke="#FFFFFF" stroke-width="78" stroke-linecap="round" stroke-dasharray="72 1345" stroke-dashoffset="-445"/>
      <circle r="214" fill="none" stroke="#FFFFFF" stroke-width="78" stroke-linecap="round" stroke-dasharray="64 1345" stroke-dashoffset="-541"/>
      <circle r="214" fill="none" stroke="#FFFFFF" stroke-width="78" stroke-linecap="round" stroke-dasharray="66 1345" stroke-dashoffset="-627"/>
      <circle r="214" fill="none" stroke="#FFFFFF" stroke-width="78" stroke-linecap="round" stroke-dasharray="102 1345" stroke-dashoffset="-715"/>
      <circle r="214" fill="none" stroke="#64D3D1" stroke-width="78" stroke-linecap="round" stroke-dasharray="94 1345" stroke-dashoffset="-846"/>
      <circle r="214" fill="none" stroke="#60CFD0" stroke-width="78" stroke-linecap="round" stroke-dasharray="88 1345" stroke-dashoffset="-967"/>
    </g>

    <circle r="142" fill="#AFDD5E"/>
    <g transform="rotate(-14)">
      <rect x="-11" y="-30" width="18" height="66" fill="#F8E27A"/>
      <rect x="-2" y="-34" width="6" height="74" fill="#E7B752"/>
    </g>
  </g>

  <g fill="#3A4A63" font-family="Arial, sans-serif" font-weight="700" font-size="18">
    <text x="638" y="255" transform="rotate(18 638 255)">SUN PHARMA GRAND TERRACE</text>
    <text x="776" y="382" transform="rotate(68 776 382)">JIO CENTRUM</text>
    <text x="799" y="420" transform="rotate(84 799 420)">UPPER</text>
    <text x="422" y="258" transform="rotate(-17 422 258)">NOTHING (R)</text>
    <text x="410" y="285" transform="rotate(-17 410 285)">PLATINUM</text>
    <text x="418" y="311" transform="rotate(-17 418 311)">LOUNGE</text>
    <text x="98" y="342" transform="rotate(-62 98 342)">SUN PHARMA STAND</text>
    <text x="80" y="526" transform="rotate(-88 80 526)">P3 BLOCK 2</text>
    <text x="111" y="700" transform="rotate(65 111 700)">NOTHING (R)</text>
    <text x="129" y="727" transform="rotate(65 129 727)">P3 BLOCK 1</text>
    <text x="292" y="808" transform="rotate(14 292 808)">SUN PHARMA BS CHANDRASHEKHAR</text>
    <text x="339" y="836" transform="rotate(14 339 836)">STAND P TERRACE</text>
    <text x="245" y="873" transform="rotate(-8 245 873)">SYED KIRMANI STAND P CORPORATE</text>
  </g>

  <g fill="#4B586E" font-family="Arial, sans-serif" font-weight="700" font-size="16">
    <text x="496" y="334" transform="rotate(14 496 334)">BOAT</text>
    <text x="512" y="357" transform="rotate(14 512 357)">C STAND</text>
    <text x="616" y="372" transform="rotate(38 616 372)">E STAND</text>
    <text x="686" y="455" transform="rotate(78 686 455)">JIO</text>
    <text x="690" y="490" transform="rotate(83 690 490)">F BLOCK 1</text>
    <text x="678" y="567" transform="rotate(88 678 567)">JIO</text>
    <text x="681" y="604" transform="rotate(91 681 604)">F BLOCK 2</text>
    <text x="632" y="682" transform="rotate(56 632 682)">BRIJESH</text>
    <text x="637" y="707" transform="rotate(56 637 707)">PATEL</text>
    <text x="638" y="731" transform="rotate(56 638 731)">STAND M1</text>
    <text x="517" y="788" transform="rotate(8 517 788)">BKT TYRES</text>
    <text x="477" y="812" transform="rotate(8 477 812)">EAS PRASANNA STAND P1</text>
    <text x="422" y="846" transform="rotate(4 422 846)">NOTHING (R)</text>
    <text x="350" y="870" transform="rotate(4 350 870)">GR VISHWANATH STAND P2</text>
    <text x="285" y="742" transform="rotate(-28 285 742)">JAVAGAL</text>
    <text x="273" y="764" transform="rotate(-28 273 764)">SRINATH</text>
    <text x="260" y="788" transform="rotate(-28 260 788)">P4 ANNEX</text>
    <text x="191" y="660" transform="rotate(-39 191 660)">VENKATESH</text>
    <text x="188" y="684" transform="rotate(-39 188 684)">PRASAD</text>
    <text x="185" y="708" transform="rotate(-39 185 708)">STAND</text>
    <text x="146" y="564" transform="rotate(-81 146 564)">BKT TYRES</text>
    <text x="153" y="620" transform="rotate(-81 153 620)">EXECUTIVE LOUNGE</text>
    <text x="188" y="466" transform="rotate(-61 188 466)">CONFIRMTKT D CORPORATE</text>
    <text x="225" y="358" transform="rotate(-33 225 358)">PUMA SHANTI</text>
    <text x="212" y="382" transform="rotate(-33 212 382)">RANGA SWAMY</text>
    <text x="236" y="406" transform="rotate(-33 236 406)">B STAND</text>
  </g>

  <text x="34" y="951" fill="#1A4A90" font-family="Arial, sans-serif" font-size="18" font-weight="800">360</text>
  <text x="70" y="953" fill="#3068B5" font-family="Arial, sans-serif" font-size="22" font-weight="700">Stand View</text>
  <text x="746" y="953" fill="#3068B5" font-family="Arial, sans-serif" font-size="22" font-weight="700">Parking ↗</text>

  <defs>
    <linearGradient id="topBand" x1="0" y1="44" x2="920" y2="44" gradientUnits="userSpaceOnUse">
      <stop stop-color="#E8D8B0"/>
      <stop offset="0.5" stop-color="#E6E6C7"/>
      <stop offset="1" stop-color="#E9D3B2"/>
    </linearGradient>
  </defs>
</svg>
